<?xml version="1.0" encoding="UTF-8"?>
<svg id="Layer_1" data-name="Layer 1" xmlns="http://www.w3.org/2000/svg" xmlns:xlink="http://www.w3.org/1999/xlink" viewBox="0 0 245.1 256.1">
  <defs>
    <style>
      .cls-1 {
        fill: url(#linear-gradient);
      }

      .cls-1, .cls-2, .cls-3, .cls-4, .cls-5, .cls-6, .cls-7, .cls-8, .cls-9, .cls-10, .cls-11, .cls-12, .cls-13, .cls-14, .cls-15, .cls-16, .cls-17, .cls-18, .cls-19, .cls-20, .cls-21, .cls-22, .cls-23, .cls-24, .cls-25, .cls-26, .cls-27, .cls-28, .cls-29, .cls-30, .cls-31, .cls-32, .cls-33, .cls-34, .cls-35, .cls-36, .cls-37, .cls-38, .cls-39, .cls-40, .cls-41, .cls-42, .cls-43 {
        stroke-width: 0px;
      }

      .cls-2 {
        fill: url(#linear-gradient-38);
      }

      .cls-3 {
        fill: url(#linear-gradient-33);
      }

      .cls-4 {
        fill: url(#linear-gradient-29);
      }

      .cls-5 {
        fill: url(#linear-gradient-32);
      }

      .cls-6 {
        fill: url(#linear-gradient-30);
      }

      .cls-7 {
        fill: url(#linear-gradient-31);
      }

      .cls-8 {
        fill: url(#linear-gradient-36);
      }

      .cls-9 {
        fill: url(#linear-gradient-39);
      }

      .cls-10 {
        fill: url(#linear-gradient-34);
      }

      .cls-11 {
        fill: url(#linear-gradient-37);
      }

      .cls-12 {
        fill: url(#linear-gradient-35);
      }

      .cls-13 {
        fill: url(#linear-gradient-28);
      }

      .cls-14 {
        fill: url(#linear-gradient-25);
      }

      .cls-15 {
        fill: url(#linear-gradient-11);
      }

      .cls-16 {
        fill: url(#linear-gradient-12);
      }

      .cls-17 {
        fill: url(#linear-gradient-13);
      }

      .cls-18 {
        fill: url(#linear-gradient-10);
      }

      .cls-19 {
        fill: url(#linear-gradient-17);
      }

      .cls-20 {
        fill: url(#linear-gradient-16);
      }

      .cls-21 {
        fill: url(#linear-gradient-19);
      }

      .cls-22 {
        fill: url(#linear-gradient-15);
      }

      .cls-23 {
        fill: url(#linear-gradient-23);
      }

      .cls-24 {
        fill: url(#linear-gradient-21);
      }

      .cls-25 {
        fill: url(#linear-gradient-18);
      }

      .cls-26 {
        fill: url(#linear-gradient-14);
      }

      .cls-27 {
        fill: url(#linear-gradient-22);
      }

      .cls-28 {
        fill: url(#linear-gradient-20);
      }

      .cls-29 {
        fill: url(#linear-gradient-27);
      }

      .cls-30 {
        fill: url(#linear-gradient-24);
      }

      .cls-31 {
        fill: url(#linear-gradient-26);
      }

      .cls-32 {
        fill: url(#linear-gradient-42);
      }

      .cls-33 {
        fill: url(#linear-gradient-43);
      }

      .cls-34 {
        fill: url(#linear-gradient-40);
      }

      .cls-35 {
        fill: url(#linear-gradient-41);
      }

      .cls-36 {
        fill: url(#linear-gradient-4);
      }

      .cls-37 {
        fill: url(#linear-gradient-2);
      }

      .cls-38 {
        fill: url(#linear-gradient-3);
      }

      .cls-39 {
        fill: url(#linear-gradient-8);
      }

      .cls-40 {
        fill: url(#linear-gradient-9);
      }

      .cls-41 {
        fill: url(#linear-gradient-7);
      }

      .cls-42 {
        fill: url(#linear-gradient-5);
      }

      .cls-43 {
        fill: url(#linear-gradient-6);
      }
    </style>
    <linearGradient id="linear-gradient" x1="121.7" y1="-10.3" x2="121.7" y2="265.2" gradientUnits="userSpaceOnUse">
      <stop offset="0" stop-color="#d09642"/>
      <stop offset="1" stop-color="#6e481e"/>
    </linearGradient>
    <linearGradient id="linear-gradient-2" x1="122.6" y1="-10.3" x2="122.6" y2="265.2" xlink:href="#linear-gradient"/>
    <linearGradient id="linear-gradient-3" x1="122.6" y1="-10.3" x2="122.6" y2="265.2" xlink:href="#linear-gradient"/>
    <linearGradient id="linear-gradient-4" x1="12.2" y1="-10.3" x2="12.2" y2="265.2" xlink:href="#linear-gradient"/>
    <linearGradient id="linear-gradient-5" x1="16.5" y1="-10.3" x2="16.5" y2="265.2" xlink:href="#linear-gradient"/>
    <linearGradient id="linear-gradient-6" x1="23.2" y1="-10.3" x2="23.2" y2="265.2" xlink:href="#linear-gradient"/>
    <linearGradient id="linear-gradient-7" x1="232.9" y1="-10.3" x2="232.9" y2="265.2" xlink:href="#linear-gradient"/>
    <linearGradient id="linear-gradient-8" x1="221.9" y1="-10.3" x2="221.9" y2="265.2" xlink:href="#linear-gradient"/>
    <linearGradient id="linear-gradient-9" x1="228.6" y1="-10.3" x2="228.6" y2="265.2" xlink:href="#linear-gradient"/>
    <linearGradient id="linear-gradient-10" x1="41.8" y1="-10.3" x2="41.8" y2="265.2" xlink:href="#linear-gradient"/>
    <linearGradient id="linear-gradient-11" x1="45.7" y1="-10.3" x2="45.7" y2="265.2" xlink:href="#linear-gradient"/>
    <linearGradient id="linear-gradient-12" x1="52.5" y1="-10.3" x2="52.5" y2="265.2" xlink:href="#linear-gradient"/>
    <linearGradient id="linear-gradient-13" x1="57.6" y1="-10.3" x2="57.6" y2="265.2" xlink:href="#linear-gradient"/>
    <linearGradient id="linear-gradient-14" x1="64.1" y1="-10.3" x2="64.1" y2="265.2" xlink:href="#linear-gradient"/>
    <linearGradient id="linear-gradient-15" x1="78.3" y1="-10.3" x2="78.3" y2="265.2" xlink:href="#linear-gradient"/>
    <linearGradient id="linear-gradient-16" x1="87.3" y1="-10.3" x2="87.3" y2="265.2" xlink:href="#linear-gradient"/>
    <linearGradient id="linear-gradient-17" x1="94.8" y1="-10.3" x2="94.8" y2="265.2" xlink:href="#linear-gradient"/>
    <linearGradient id="linear-gradient-18" x1="101.1" y1="-10.3" x2="101.1" y2="265.2" xlink:href="#linear-gradient"/>
    <linearGradient id="linear-gradient-19" x1="109.9" y1="-10.3" x2="109.9" y2="265.2" xlink:href="#linear-gradient"/>
    <linearGradient id="linear-gradient-20" x1="124.2" y1="-10.3" x2="124.2" y2="265.2" xlink:href="#linear-gradient"/>
    <linearGradient id="linear-gradient-21" x1="131.7" y1="-10.3" x2="131.7" y2="265.2" xlink:href="#linear-gradient"/>
    <linearGradient id="linear-gradient-22" x1="139.3" y1="-10.3" x2="139.3" y2="265.2" xlink:href="#linear-gradient"/>
    <linearGradient id="linear-gradient-23" x1="148.3" y1="-10.3" x2="148.3" y2="265.2" xlink:href="#linear-gradient"/>
    <linearGradient id="linear-gradient-24" x1="161.4" y1="-10.3" x2="161.4" y2="265.2" xlink:href="#linear-gradient"/>
    <linearGradient id="linear-gradient-25" x1="168.6" y1="-10.3" x2="168.6" y2="265.2" xlink:href="#linear-gradient"/>
    <linearGradient id="linear-gradient-26" x1="175" y1="-10.3" x2="175" y2="265.2" xlink:href="#linear-gradient"/>
    <linearGradient id="linear-gradient-27" x1="183.4" y1="-10.3" x2="183.4" y2="265.2" xlink:href="#linear-gradient"/>
    <linearGradient id="linear-gradient-28" x1="193.5" y1="-10.3" x2="193.5" y2="265.2" xlink:href="#linear-gradient"/>
    <linearGradient id="linear-gradient-29" x1="202.9" y1="-10.3" x2="202.9" y2="265.2" xlink:href="#linear-gradient"/>
    <linearGradient id="linear-gradient-30" x1="205.8" y1="-10.3" x2="205.8" y2="265.2" xlink:href="#linear-gradient"/>
    <linearGradient id="linear-gradient-31" x1="37.4" y1="-10.3" x2="37.4" y2="265.2" xlink:href="#linear-gradient"/>
    <linearGradient id="linear-gradient-32" x1="50.9" y1="-10.3" x2="50.9" y2="265.2" xlink:href="#linear-gradient"/>
    <linearGradient id="linear-gradient-33" x1="61.5" y1="-10.3" x2="61.5" y2="265.2" xlink:href="#linear-gradient"/>
    <linearGradient id="linear-gradient-34" x1="75.9" y1="-10.3" x2="75.9" y2="265.2" xlink:href="#linear-gradient"/>
    <linearGradient id="linear-gradient-35" x1="91.4" y1="-10.3" x2="91.4" y2="265.2" xlink:href="#linear-gradient"/>
    <linearGradient id="linear-gradient-36" x1="106.4" y1="-10.3" x2="106.4" y2="265.2" xlink:href="#linear-gradient"/>
    <linearGradient id="linear-gradient-37" x1="120.9" y1="-10.3" x2="120.9" y2="265.2" xlink:href="#linear-gradient"/>
    <linearGradient id="linear-gradient-38" x1="141" y1="-10.3" x2="141" y2="265.2" xlink:href="#linear-gradient"/>
    <linearGradient id="linear-gradient-39" x1="154.8" y1="-10.3" x2="154.8" y2="265.2" xlink:href="#linear-gradient"/>
    <linearGradient id="linear-gradient-40" x1="168.6" y1="-10.3" x2="168.6" y2="265.2" xlink:href="#linear-gradient"/>
    <linearGradient id="linear-gradient-41" x1="180.9" y1="-10.3" x2="180.9" y2="265.2" xlink:href="#linear-gradient"/>
    <linearGradient id="linear-gradient-42" x1="192.4" y1="-10.3" x2="192.4" y2="265.2" xlink:href="#linear-gradient"/>
    <linearGradient id="linear-gradient-43" x1="203.4" y1="-10.3" x2="203.4" y2="265.2" xlink:href="#linear-gradient"/>
  </defs>
  <g id="logo">
    <g id="main">
      <path class="cls-1" d="M122.3,219.5c-.2,0-.5,0-.7,0-42.8,0-60.5-23.7-61.2-24.7l-4.4-6.1h50.2c0-.1,0-9.9,0-9.9-9.9,0-36.2.1-51.3.2h0c-2,0-4.1-.5-5.9-1.5-4.2-2.4-6.6-6.5-6.6-11.1,0-6.9,5.6-12.5,12.5-12.6l39.7-.2v-42.3c-8.5,3.3-15.8,3.2-19.6,1.5-4.8-2-8.5-6.2-9.7-11.3-1.6-6.6,1.2-13.6,6.9-17.4,4.4-2.9,10-3.5,14.9-1.5.3.1.6.3.9.4,6.8,3,11.7,9,13.5,16.2l13.5-7.1c4.2-2.2,9.2-2.2,13.4,0l13.4,7c1.8-7.4,6.8-13.7,13.6-16.7.3-.1.6-.3.9-.4,4.9-2,10.5-1.3,15,1.7,5.7,3.8,8.5,10.9,7,17.6-1.2,5.2-4.8,9.5-9.8,11.5h-.2c0,0-.2.2-.2.2-7.4,1.9-14.5.2-19.2-1.6v42.2s32.9-.2,32.9-.2v-21.1c0,0-25.2,0-25.2,0h-4s0-3.7,0-3.7c0-2.2,1.7-4,3.9-4h0s33.1,0,33.1,0v36.6c0,0-48.5.2-48.5.2v-53.8s-16.2-8.5-16.2-8.5c-1.9-1-4.3-1-6.2,0l-16.3,8.5v53.7s-47.4.2-47.4.2c-2.6,0-4.8,2.2-4.8,4.8s1,3.4,2.7,4.3c.7.3,1.4.5,2.1.5h0c18.8,0,55.2-.2,55.2-.2h3.9s-.1,25.3-.1,25.3h-41.1c7.8,6.5,23.3,15.5,48.8,15.5,25.2.1,41-8.9,49-15.3l-41.2-.3v-25.1s71.7,0,71.7,0h0c0,4.2-3.4,7.7-7.7,7.7h-56.3s0,9.7,0,9.7l50.6.4-4.7,6.2c-.8,1-19.1,24.5-60.8,24.5ZM81,89.4c-1.6,0-3.3.5-4.7,1.4-3,2-4.4,5.6-3.6,9.1.6,2.7,2.6,4.9,5.1,5.9h.3c1.5.8,7.8,1.3,16.2-2.7-.8-5.6-4.4-10.6-9.5-12.8-.2,0-.4-.2-.6-.3-1-.4-2.1-.6-3.1-.6ZM148.8,103.1c3.2,1.6,10,4.2,16.9,2.6,2.4-1.1,4.2-3.2,4.8-5.9.8-3.6-.7-7.4-3.8-9.5-2.3-1.6-5.3-1.9-7.8-.9-.2,0-.4.2-.6.3-5.2,2.3-8.8,7.5-9.6,13.4Z"/>
      <g>
        <path class="cls-37" d="M209.9,69.7c-2.4,1-4.9,2-7.5,2.8,3.2,4.4,6,9,8.4,13.8,6.9,13.8,10.4,28.6,10.4,44.1,0,26.3-10.3,51.1-28.9,69.7-18.6,18.6-43.4,28.9-69.8,28.9s-51.1-10.3-69.7-28.9c-18.6-18.6-28.9-43.4-28.9-69.7s3.5-30.3,10.4-44.1c3.5-7.1,8-13.7,13.1-19.8,19.4,6.8,47.8,10.4,75.1,10.4s55.7-3.6,75.1-10.4c2.7-.9,5.2-2,7.6-3-.4-.5-.9-1-1.3-1.6-.4-.4-.7-.9-1.1-1.3-.2-.2-.3-.4-.5-.6-.3-.4-.6-.7-.9-1-.5-.6-1-1.1-1.5-1.6-2.4,1-5.1,2-8,2.9h0c-15.9,5-39.6,8.8-69.4,8.8s-53.5-3.8-69.4-8.8c0,0,0,0,0,0-2.9-.9-5.6-1.9-8-2.9-.1.1-.2.3-.4.4-.3.4-.7.7-1,1.1-.4.5-.9,1-1.3,1.5,0,0-.1.1-.2.2-16.3,18.7-26.1,43.1-26.1,69.8,0,58.7,47.6,106.4,106.4,106.4s106.4-47.6,106.4-106.4-7-43.5-19.1-60.8Z"/>
        <path class="cls-38" d="M122.6,61.4c22.1,0,44.9-2.3,63.1-6.8,3.1-.8,6.1-1.6,8.9-2.5-.4-.3-.7-.7-1.1-1-.3-.3-.6-.6-1-.9-.8-.7-1.6-1.4-2.4-2.1-.4-.3-.7-.6-1.1-.9-.4-.3-.8-.6-1.2-.9,0,0-.1-.1-.2-.2h0c-2.6-2-5.3-3.9-8.1-5.7-16.4-10.4-35.9-16.4-56.8-16.4s-40.2,6-56.5,16.3c3.4.8,6.2,1.5,11.3,2.7,16.5-8.4,30.2-10.6,45.3-11.2,18.7-.7,36.9,5.3,52.7,15.2.8.5,1.6,1,2.4,1.5-14.6,3.1-33.2,5.1-55,5.1s-49.2-3.1-64.9-7.5c0,0-.1.1-.2.2h0c-1.1.9-2.3,1.8-3.4,2.7,0,0,0,0-.1,0-.6.5-1.1.9-1.6,1.4-.5.4-1,.8-1.4,1.3,0,0-.2.2-.3.3,2.8.9,5.8,1.7,8.9,2.5,18.2,4.5,40.9,6.8,63.1,6.8Z"/>
      </g>
    </g>
    <g id="border">
      <g>
        <g>
          <path class="cls-36" d="M15.1,189.4C5.1,171.2-.2,150.4,0,129.4c.2-24.8,7.8-48.7,21.9-68.9l2.5,1.8C10.7,82,3.3,105.3,3.1,129.5c-.2,20.5,4.9,40.7,14.7,58.5l-2.7,1.5Z"/>
          <path class="cls-42" d="M20.5,186.4c1.2,2.2.4,5.1-1.8,6.3-2.2,1.2-5.1.4-6.3-1.8-1.2-2.2-.4-5.1,1.8-6.3,2.2-1.2,5.1-.4,6.3,1.8Z"/>
          <path class="cls-43" d="M27,64c1.5-2.1.9-5-1.2-6.5-2.1-1.5-5-.9-6.5,1.2-1.5,2.1-.9,5,1.2,6.5,2.1,1.5,5,.9,6.5-1.2Z"/>
        </g>
        <g>
          <path class="cls-41" d="M230,189.4l-2.7-1.5c9.5-17.2,14.6-36.7,14.7-56.5.2-24.9-7.2-48.8-21.3-69.1l2.5-1.8c14.5,20.9,22.1,45.4,21.9,70.9-.2,20.3-5.4,40.3-15.1,58Z"/>
          <path class="cls-39" d="M218.1,64.1c-1.5-2.1-.9-5,1.2-6.5,2.1-1.5,5-.9,6.5,1.2,1.5,2.1.9,5-1.2,6.5-2.1,1.5-5,.9-6.5-1.2Z"/>
          <path class="cls-40" d="M224.6,186.5c-1.2,2.2-.4,5.1,1.8,6.3,2.2,1.2,5.1.4,6.3-1.8,1.2-2.2.4-5.1-1.8-6.3-2.2-1.2-5.1-.4-6.3,1.8Z"/>
        </g>
      </g>
    </g>
    <g id="txt">
      <g>
        <path class="cls-18" d="M46.4,214.5l-2-2.2-7,6.4-1.1-1.2,7-6.4-2-2.2,1.1-1,5.2,5.7-1.1,1Z"/>
        <path class="cls-15" d="M47.2,218.7c.4,0,.8,0,1.1.1.4.1.7.3,1,.6.3.3.5.6.7.9.2.3.2.6.3,1,0,.4,0,.8-.2,1.2s-.4.7-.7,1l-3.4,3.7-1.2-1.1,3.3-3.5c.4-.4.6-.9.6-1.3,0-.4-.2-.8-.5-1.1-.3-.3-.7-.5-1.1-.5-.4,0-.8.2-1.3.6l-3.3,3.5-1.2-1.1,7.5-8.1,1.2,1.1-2.7,2.9Z"/>
        <path class="cls-16" d="M49.6,230.2l-1.2-1,5-6.1,1.2,1-5,6.1ZM55.6,222.9l-1.3-1.1,1.1-1.3,1.3,1.1-1.1,1.3Z"/>
        <path class="cls-17" d="M55.2,230.1c-.4.6-.6,1.1-.5,1.6,0,.5.3,1,.9,1.3.4.3.7.4,1,.5.3,0,.6,0,1,0l.3,1.4c-.3,0-.6,0-.8,0-.3,0-.5,0-.7,0-.2,0-.5-.1-.8-.3-.3-.1-.5-.3-.8-.5-.4-.3-.7-.6-1-1-.3-.4-.4-.8-.5-1.2s0-.9.1-1.5c.2-.5.4-1.1.9-1.7.8-1,1.6-1.7,2.5-1.9.9-.2,1.8,0,2.6.6.4.3.8.7,1,1,.2.4.4.8.4,1.2,0,.4,0,.9-.2,1.4-.2.5-.4.9-.7,1.4l-.4.5-4.1-3ZM58.7,231.3c.1-.2.2-.4.3-.5,0-.1.1-.3.2-.5,0-.3,0-.6,0-.9-.1-.3-.3-.6-.6-.8-.3-.2-.6-.3-.9-.3-.3,0-.6,0-.9.2-.2,0-.3.2-.4.3-.1.1-.2.3-.4.4l2.9,2.1ZM62.1,228l-1.1-.8-.2-2-2,.4-1.1-.8,3.1-.8,1.1.8.2,3.2Z"/>
        <path class="cls-26" d="M67,232.7c.3.2.6.4.8.7.2.3.4.6.4.9.1.4.1.8,0,1.2s-.3.7-.5,1.1l-2.6,4.3-1.4-.8,2.5-4.1c.3-.5.4-1,.3-1.4-.1-.4-.4-.7-.7-.9-.4-.2-.8-.3-1.2-.2-.4,0-.8.4-1.1.9l-2.5,4.1-1.4-.8,4.1-6.7,1.3.8-.4.7c.4-.1.8-.1,1.2,0,.4,0,.8.2,1.1.4Z"/>
        <path class="cls-22" d="M79.9,248l-1.4-.6-1.6-9.1-3.1,7.1-1.5-.7,4.4-10.1,1.4.6,1.6,9.1,3.1-7.1,1.5.7-4.4,10.1Z"/>
        <path class="cls-20" d="M87.1,243c.3-.2.7-.3,1.1-.3.4,0,.8,0,1.1.1.4.1.7.3,1,.5.3.2.5.5.6.8.2.4.3.8.3,1.1,0,.4,0,.8-.2,1.2l-1.6,4.8-1.5-.5,1.5-4.5c.2-.6.2-1,0-1.4-.2-.4-.5-.6-.9-.7-.4-.1-.8-.1-1.2,0-.4.2-.7.5-.9,1.1l-1.5,4.5-1.5-.5,3.4-10.5,1.5.5-1.2,3.8Z"/>
        <path class="cls-19" d="M94.1,252.5l-1.5-.4,2-7.6,1.5.4-2,7.6ZM96.5,243.4l-1.6-.4.4-1.6,1.6.4-.4,1.6Z"/>
        <path class="cls-25" d="M99.1,250.1c-.1.7,0,1.2.2,1.7.3.4.7.7,1.3.9.4,0,.8,0,1.1,0,.3,0,.6-.2.9-.4l.8,1.1c-.2.2-.5.3-.7.4-.2.1-.5.2-.7.2-.2,0-.5,0-.8,0-.3,0-.6,0-.9-.1-.5,0-.9-.3-1.3-.5-.4-.2-.7-.5-1-.9-.2-.4-.4-.8-.5-1.4,0-.5,0-1.2,0-1.9.2-1.3.7-2.2,1.5-2.7.7-.6,1.6-.7,2.6-.6.5.1,1,.3,1.3.5s.7.6.9,1c.2.4.3.8.4,1.3s0,1,0,1.6v.7c-.1,0-5.1-1-5.1-1ZM102.8,249.7c0-.2,0-.4,0-.6s0-.3,0-.5c0-.3-.2-.6-.4-.8-.2-.2-.5-.4-.9-.4-.4,0-.7,0-1,0-.3.1-.5.3-.7.6-.1.2-.2.3-.2.4,0,.1-.1.3-.2.6l3.5.7ZM104.6,245.2l-1.3-.3-1-1.7-1.6,1.2-1.3-.3,2.4-2.1,1.3.3,1.5,2.8Z"/>
        <path class="cls-21" d="M111,247.4c.4,0,.8.1,1.1.3.3.2.6.4.8.6.3.3.4.7.5,1.1,0,.4,0,.8,0,1.2l-.6,5-1.6-.2.5-4.8c0-.6,0-1.1-.3-1.4s-.6-.5-1.1-.5c-.4,0-.8,0-1.2.3-.3.2-.6.7-.6,1.3l-.5,4.8-1.6-.2.9-7.8,1.5.2v.8c.2-.3.6-.5.9-.6.4-.1.8-.1,1.2,0Z"/>
        <path class="cls-28" d="M124.1,244.9c.6,0,1.1,0,1.6.2s.9.4,1.2.7.6.7.8,1.1c.2.4.4.8.4,1.3h-1.7c-.2-.6-.4-1-.8-1.4-.4-.3-.9-.5-1.5-.5-.7,0-1.2.2-1.6.7-.1.1-.2.3-.3.5,0,.2-.1.4-.2.6,0,.3,0,.6,0,.9,0,.4,0,.8,0,1.4,0,.5,0,1,0,1.4,0,.4,0,.7.1.9,0,.3.1.5.2.6,0,.2.2.3.3.5.4.4,1,.6,1.7.6.4,0,.7,0,1-.2.3-.1.6-.3.8-.6.2-.2.3-.5.4-.8,0-.3.1-.6,0-1v-.6s-2.4,0-2.4,0v-1.4s4,0,4,0v1.7c0,.7,0,1.3-.2,1.8-.1.5-.4.9-.7,1.3-.4.4-.9.8-1.4,1-.5.2-1.1.3-1.6.3-.6,0-1.1,0-1.6-.3s-.9-.5-1.3-.8c-.3-.3-.5-.5-.6-.8-.2-.3-.3-.6-.3-.9,0-.3-.1-.7-.2-1.2,0-.4,0-.9,0-1.5s0-1.1,0-1.5c0-.4,0-.8.1-1.2,0-.3.2-.7.3-1,.1-.3.3-.6.6-.8.4-.4.8-.7,1.2-.9.5-.2,1-.3,1.6-.3Z"/>
        <path class="cls-24" d="M132.3,246.2h-1.7c0,.1-.1-1.5-.1-1.5h1.7c0-.1.1,1.5.1,1.5ZM133,255.5h-1.6c0,.1-.6-7.7-.6-7.7h1.6c0-.1.6,7.7.6,7.7Z"/>
        <path class="cls-27" d="M143.5,246.7c0,.6,0,1.1-.2,1.4-.2.3-.7.5-1.4.6h-.1s.8,5.5.8,5.5l-1.5.2v-.8c-.3.3-.6.6-1,.8-.3.2-.7.3-1.1.4-.8.1-1.5,0-2-.4-.3-.3-.6-.6-.8-.9s-.3-.7-.3-1.2l-.7-5,1.6-.2.7,4.7c0,.6.3,1,.6,1.2.3.2.7.3,1.2.3.2,0,.4,0,.6-.2s.3-.2.5-.4.2-.4.3-.6c0-.2,0-.5,0-.8l-.7-4.7,1.6-.2.2,1.3h.2c.2,0,.4-.2.5-.3s.1-.4,0-.8v-.8c-.1,0,1-.2,1-.2v.9ZM136.7,243.9c.2,0,.4,0,.6,0,.2,0,.4.1.6.2.2,0,.3.1.5.2.1,0,.3,0,.4,0,.1,0,.2,0,.4-.1s.3-.2.5-.5l.8.6c-.3.4-.6.7-.8.8-.2.1-.5.2-.7.3-.2,0-.4,0-.6,0-.2,0-.4,0-.6-.2-.2,0-.3-.1-.5-.1-.1,0-.3,0-.4,0-.1,0-.3,0-.4.1-.1,0-.3.2-.4.5l-.8-.6c.3-.4.6-.7.8-.8s.5-.2.7-.3Z"/>
        <path class="cls-23" d="M147,245.3c1.1-.2,1.9-.2,2.5.1.6.3,1,.9,1.2,1.8l1.2,5.1-1.5.4-.2-.7c-.2.3-.5.6-.7.8-.3.2-.6.3-1.1.5-.5.1-.9.1-1.3.1-.4,0-.7-.1-1-.3-.5-.3-.8-.8-1-1.5-.1-.6,0-1.2.3-1.7.3-.5,1-.9,1.8-1.1l2-.5v-.5c-.2-.5-.5-.8-.8-1-.3-.2-.8-.2-1.4,0-.4,0-.7.2-.9.4-.2.2-.4.4-.6.7l-1.2-.7c.1-.3.3-.5.4-.7.2-.2.3-.3.5-.5s.4-.3.7-.4c.2,0,.5-.2.9-.3ZM147.9,249.7c-.9.2-1.3.7-1.1,1.4,0,.4.3.6.5.7.3.1.7.1,1.2,0,.3,0,.5-.1.7-.2.2-.1.4-.3.6-.5.2-.3.2-.7,0-1.2v-.6c-.1,0-1.9.4-1.9.4Z"/>
        <path class="cls-30" d="M167,247.3l-1.6.6-1.7-4.5-4.2,1.6,1.7,4.5-1.6.6-3.9-10.3,1.6-.6,1.6,4.4,4.2-1.6-1.6-4.4,1.6-.6,3.9,10.3Z"/>
        <path class="cls-14" d="M167.8,236.6l-1.5.7-.7-1.5,1.5-.7.7,1.5ZM171.7,245.2l-1.4.7-3.3-7.1,1.4-.7,3.3,7.1Z"/>
        <path class="cls-31" d="M175.2,233l-1.2.6-1.9-.7-.5,2-1.2.6.6-3.1,1.2-.6,2.9,1.3ZM174.1,240.2c.3.6.7,1,1.2,1.2s1,.1,1.6-.2c.4-.2.7-.4.9-.7.2-.2.3-.6.4-.9l1.3.4c0,.3-.2.5-.3.8-.1.2-.2.4-.4.6s-.3.4-.6.6-.5.3-.8.5c-.4.2-.9.4-1.3.5s-.9,0-1.3,0-.8-.4-1.2-.7-.8-.9-1.1-1.5c-.6-1.1-.8-2.2-.6-3,.2-.9.8-1.6,1.7-2.1.5-.2.9-.4,1.4-.4.4,0,.9,0,1.3.2.4.2.8.4,1.1.8.4.3.7.8.9,1.3l.3.6-4.5,2.4ZM176.7,237.6c-.1-.2-.2-.4-.3-.5,0-.1-.2-.2-.4-.4-.3-.2-.5-.3-.9-.4-.3,0-.6,0-1,.2-.3.2-.6.4-.7.7-.1.3-.2.6-.2.9,0,.2,0,.4,0,.5,0,.1.1.3.2.5l3.1-1.7ZM179.2,244.6l-1.3.7-.8-1.5,1.3-.7.8,1.5Z"/>
        <path class="cls-29" d="M181.6,230.6c.3-.2.7-.4,1-.4.3,0,.7,0,1,0,.4,0,.8.3,1.1.5.3.2.6.6.8.9l2.7,4.2-1.3.9-2.6-4c-.3-.5-.7-.8-1.1-.9-.4,0-.8,0-1.2.3-.4.2-.6.6-.7,1-.1.4,0,.9.3,1.4l2.6,4-1.3.9-4.2-6.6,1.3-.8.4.7c0-.4.2-.8.4-1.1.2-.3.5-.6.8-.8Z"/>
        <path class="cls-13" d="M190.7,220c.5-.4,1.1-.7,1.6-.9.5-.2,1.1-.2,1.7,0,.3,0,.6.2.9.3s.5.3.8.6c.3.2.5.5.8.8s.5.6.8.9c.3.3.6.7.8,1,.2.3.5.6.6.9.2.3.3.6.4.9s.2.6.2.9c0,.6-.1,1.2-.3,1.7-.2.5-.6,1-1.2,1.4l-3,2.5-3.2-3.8-.9.7-.8-1,.9-.7-3.1-3.7,3-2.5ZM190,222.6l2.1,2.5,1.6-1.4.8,1-1.6,1.4,2.2,2.6,1.5-1.3c.3-.3.5-.5.7-.8.2-.3.3-.6.3-1,0-.4-.1-.8-.4-1.3-.3-.4-.7-1-1.2-1.6-.5-.6-1-1.1-1.4-1.5-.4-.4-.8-.6-1.2-.6-.4,0-.7,0-1,0-.3.1-.6.3-.9.6l-1.5,1.3Z"/>
        <path class="cls-4" d="M199.4,216.2c.8-.8,1.5-1.2,2.2-1.2.7,0,1.4.2,2,.9l3.7,3.7-1.1,1.1-.5-.5c0,.4,0,.8-.2,1.1-.1.3-.4.6-.7,1-.3.4-.7.6-1,.8-.3.2-.6.2-1,.2-.6,0-1.1-.3-1.6-.7-.5-.5-.7-1-.7-1.6,0-.6.3-1.3,1-1.9l1.5-1.5-.4-.4c-.4-.4-.7-.5-1.1-.5s-.7.2-1.2.7c-.3.3-.5.6-.6.8,0,.3-.1.6,0,.9h-1.4c0-.2,0-.5,0-.7,0-.2,0-.5.2-.7,0-.2.2-.4.4-.7s.4-.4.6-.7ZM202.4,219.5c-.7.7-.7,1.3-.2,1.8.3.3.5.4.8.3.3,0,.6-.2,1-.6.2-.2.4-.4.5-.6.1-.2.2-.4.2-.7,0-.3-.2-.7-.6-1.1l-.5-.4-1.3,1.3ZM207.7,223.2l-1,1-1.2-1.2,1-1,1.2,1.2Z"/>
        <path class="cls-6" d="M203.4,209.7l-1.1,1.3-1.3-1.1,1.1-1.3,1.3,1.1ZM210.5,216l-1,1.2-5.9-5.2,1-1.2,5.9,5.2Z"/>
      </g>
      <g>
        <path class="cls-7" d="M46,42.8l-2,1.9-4.1-4.3-3.5,3.3,4.1,4.3-2,1.9-9.7-10.2,2-1.9,4,4.1,3.5-3.3-4-4.1,2-1.9,9.7,10.2Z"/>
        <path class="cls-5" d="M58,33.5l-2.3,1.7-2.2-1.5-4,3,.8,2.5-2.3,1.7-4.3-14.4,1.7-1.3,12.5,8.2ZM48.8,34.4l2.8-2.1-4.4-3.1,1.7,5.1Z"/>
        <path class="cls-3" d="M58.2,17c.6-.4,1.2-.6,1.9-.7s1.2,0,1.7,0,1,.4,1.5.7c.4.3.8.8,1.1,1.3.3.4.4.9.5,1.3s0,.8,0,1.2c0,.4-.2.7-.3,1.1-.2.3-.4.7-.6.9l5.8,3.7-2.8,1.6-5.2-3.5-1.7,1,2.8,4.9-2.4,1.4-7-12.2,4.8-2.8ZM57,20.5l1.8,3.2,2.3-1.3c.5-.3.9-.7,1-1.2.1-.5,0-1-.2-1.4-.3-.5-.7-.8-1.1-.9-.5-.1-1,0-1.5.3l-2.3,1.3Z"/>
        <path class="cls-10" d="M84.4,20.3l-2.5,1-3.1-7.6-.6,5.6-1.7.7-4.4-3.6,3.1,7.6-2.5,1-5.3-13,2.5-1,6.2,5.4.6-8.1,2.5-1,5.3,13Z"/>
        <path class="cls-12" d="M89.6,4.1c.8-.2,1.5-.3,2.2-.2s1.3.3,1.9.6c.4.2.8.5,1.1.8.3.3.5.7.7,1.1.2.4.4.9.5,1.4.2.5.3,1.1.5,1.8.2.7.3,1.2.4,1.8.1.5.2,1,.2,1.5,0,.5,0,.9,0,1.3,0,.4-.3.8-.5,1.3-.4.6-.8,1.1-1.3,1.5-.5.4-1.2.7-2,.9-.8.2-1.5.3-2.2.2s-1.3-.3-1.9-.6c-.4-.3-.8-.5-1.1-.9-.3-.3-.5-.7-.7-1.1-.2-.4-.4-.9-.5-1.4-.2-.5-.3-1.1-.5-1.8-.2-.7-.3-1.2-.4-1.8-.1-.5-.2-1-.2-1.5,0-.5,0-.9,0-1.3,0-.4.3-.8.5-1.3.4-.6.8-1.1,1.3-1.5s1.2-.7,2-.9ZM90.2,6.5c-.4,0-.7.2-.9.5-.3.2-.4.4-.6.7,0,.2-.2.4-.2.6s0,.4,0,.7c0,.3,0,.7.2,1.1s.2,1,.4,1.6c.2.7.3,1.2.5,1.6.1.4.3.8.4,1,.1.3.3.5.4.6.1.1.3.3.4.4.2.2.5.3.9.3.3,0,.7,0,1,0,.4,0,.7-.3.9-.5s.4-.5.6-.7c0-.2.2-.4.2-.6s0-.4,0-.7c0-.3,0-.6-.2-1.1,0-.4-.2-1-.4-1.6-.2-.7-.3-1.2-.4-1.6-.1-.4-.3-.8-.4-1-.1-.3-.3-.5-.4-.6-.1-.1-.3-.3-.4-.4-.2-.2-.5-.3-.9-.3-.3,0-.7,0-1,0Z"/>
        <path class="cls-8" d="M112.7,14.4l-2.4.3-6.7-7.8,1.1,8.5-2.7.4-1.8-14,2.4-.3,6.6,7.8-1.1-8.5,2.7-.4,1.8,14Z"/>
        <path class="cls-11" d="M122.4,8.4v5.8c0,0-2.7,0-2.7,0v-5.8c0,0-4.4-8.3-4.4-8.3h3s2.7,5.6,2.7,5.6L123.5,0h3s-4.1,8.3-4.1,8.3Z"/>
        <path class="cls-2" d="M142,1.4c1.3.2,2.4.7,3.2,1.6.8.9,1.2,2.1,1.3,3.6l-2.8-.4c0-.6-.2-1.1-.6-1.5-.3-.4-.8-.7-1.5-.8-.4,0-.7,0-1,0-.3,0-.6.2-.8.4-.2.1-.3.3-.4.4-.1.2-.2.4-.3.7,0,.3-.2.6-.3,1.1,0,.4-.2,1-.3,1.6,0,.7-.2,1.2-.2,1.7s0,.8,0,1.1c0,.3,0,.5.1.7,0,.2.1.4.3.5.2.3.4.5.7.6.3.2.6.3,1,.3.7.1,1.2,0,1.7-.3.4-.3.8-.8,1-1.3l2.8.4c-.5,1.4-1.2,2.4-2.2,3-1,.6-2.2.8-3.5.6-.8-.1-1.5-.4-2.1-.7-.6-.3-1.1-.8-1.5-1.3-.3-.4-.5-.8-.6-1.2-.1-.4-.2-.8-.2-1.3,0-.5,0-1,0-1.5,0-.5.1-1.1.2-1.8,0-.7.2-1.3.3-1.8,0-.5.2-1,.4-1.5.2-.4.3-.8.6-1.2.2-.3.6-.7,1-1,.6-.4,1.1-.7,1.8-.8.6-.2,1.4-.2,2.2,0Z"/>
        <path class="cls-9" d="M156.7,4.4c.8.2,1.4.5,2,.9.5.4,1,.9,1.3,1.5.3.4.4.8.5,1.3,0,.4.1.9,0,1.3,0,.5-.1,1-.2,1.5-.1.5-.3,1.1-.4,1.8-.2.6-.3,1.2-.5,1.8-.2.5-.3,1-.5,1.4-.2.4-.4.8-.7,1.1s-.6.6-1.1.8c-.6.3-1.2.5-1.9.6s-1.4,0-2.2-.2c-.8-.2-1.4-.5-2-.9-.5-.4-1-.9-1.3-1.5-.3-.4-.4-.9-.5-1.3,0-.4-.1-.9,0-1.3s.1-1,.2-1.5c.1-.5.3-1.1.4-1.8.2-.6.3-1.2.5-1.7.2-.5.3-1,.5-1.4.2-.4.4-.8.7-1.1.3-.3.6-.6,1.1-.9.6-.3,1.2-.5,1.9-.6.7,0,1.4,0,2.2.2ZM156,6.8c-.4-.1-.7-.1-1,0-.3,0-.6.2-.9.3-.2.1-.3.2-.5.4s-.3.4-.4.6c-.1.3-.3.6-.4,1-.1.4-.3,1-.5,1.6-.2.6-.3,1.2-.4,1.6,0,.4-.2.8-.2,1.1,0,.3,0,.5,0,.7,0,.2.1.4.2.6.1.3.3.5.6.7.2.2.6.4.9.5.4,0,.7.1,1,0,.3,0,.6-.2.9-.3.2-.1.3-.2.5-.4.1-.1.3-.4.4-.6s.3-.6.4-1c.1-.4.3-1,.5-1.6.2-.6.3-1.2.4-1.6,0-.4.2-.8.2-1.1,0-.3,0-.5,0-.7,0-.2-.1-.4-.2-.6-.1-.3-.3-.5-.6-.7-.3-.2-.6-.4-.9-.5Z"/>
        <path class="cls-34" d="M174.6,13.4l-6.1-2.4-1.3,3.2,5.2,2.1-.9,2.3-5.2-2.1-2.1,5.3-2.6-1,5.2-13.1,8.6,3.4-.9,2.3Z"/>
        <path class="cls-35" d="M187.1,19.9l-5.8-3.1-1.6,3.1,4.9,2.6-1.2,2.2-4.9-2.6-2.7,5-2.4-1.3,6.6-12.4,8.2,4.4-1.2,2.2Z"/>
        <path class="cls-32" d="M198.9,27.6l-5.4-3.7-1.9,2.7,4.6,3.2-1.4,2-4.6-3.2-1.9,2.8,5.4,3.7-1.4,2-7.7-5.2,8-11.6,7.6,5.2-1.4,2Z"/>
        <path class="cls-33" d="M209.9,36.9l-4.9-4.3-2.2,2.5,4.2,3.6-1.6,1.9-4.2-3.6-2.2,2.6,4.9,4.3-1.6,1.9-7-6.1,9.2-10.7,7,6.1-1.6,1.9Z"/>
      </g>
    </g>
  </g>
</svg>